<svg version="1.1" id="Layer_1" xmlns="http://www.w3.org/2000/svg" xmlns:xlink="http://www.w3.org/1999/xlink" x="0px" y="0px"
	 width="100%" viewBox="0 0 990 960" enable-background="new 0 0 990 960" xml:space="preserve">
<path fill="#CD2E2C" opacity="1.000000" stroke="none" 
	d="
M337.261414,522.222412 
	C341.379578,519.783569 345.206818,517.559631 349.073395,515.406189 
	C356.509033,511.265167 359.588959,504.328400 360.919647,496.469238 
	C362.763580,485.579041 363.375214,474.566498 364.155579,463.546387 
	C365.508972,444.433441 365.665527,425.004944 373.003052,406.841736 
	C382.564270,383.174255 397.455597,364.025330 419.663879,350.546143 
	C439.326813,338.611877 460.544464,330.603577 482.051178,323.033905 
	C499.830078,316.776245 516.992188,309.020966 534.238525,301.443634 
	C557.805847,291.089203 580.760925,279.404083 604.593628,269.620422 
	C617.676575,264.249664 629.476501,256.294189 641.866028,249.526276 
	C652.949890,243.471558 663.872375,237.121826 674.937500,231.032135 
	C703.808655,215.142899 733.055969,199.835037 760.069336,180.868164 
	C784.353149,163.817825 808.340454,146.314194 831.944824,128.335983 
	C855.071777,110.721390 877.574097,92.285332 900.303711,74.150993 
	C911.645691,65.102058 921.805115,54.732243 932.508240,44.969822 
	C936.404358,41.416222 940.244751,37.796555 944.803833,35.092773 
	C946.186951,34.272541 947.928223,33.193024 949.400940,34.409855 
	C951.006226,35.736115 951.339478,37.845165 950.909241,39.893639 
	C949.425659,46.957390 947.172913,53.785393 944.231506,60.368622 
	C933.498840,84.388496 921.447266,107.670692 906.376953,129.331787 
	C899.409241,139.346848 891.300049,148.411484 883.560791,157.769760 
	C875.247925,167.821411 866.666870,177.734131 857.398743,186.893936 
	C842.636353,201.483841 826.544067,214.456757 808.697754,225.328033 
	C800.070618,230.583359 792.416138,237.473251 783.901123,243.066071 
	C772.893982,250.295792 760.616516,255.181885 749.467773,262.150391 
	C719.142151,281.105377 686.319092,295.304749 654.621826,311.646545 
	C647.498718,315.318939 639.969543,318.208679 633.188843,323.016663 
	C637.684692,321.903107 642.296570,321.124664 646.655762,319.616211 
	C662.889832,313.998505 679.038696,308.134644 695.223816,302.375275 
	C714.512939,295.511322 733.293213,287.369263 752.098267,279.329895 
	C774.250793,269.859467 796.351562,260.216827 818.090088,249.842728 
	C840.766052,239.021286 863.185730,227.617691 885.346619,215.774719 
	C908.491821,203.405701 932.037415,191.717865 954.153015,177.478836 
	C955.317871,176.728851 956.838013,175.284485 958.192261,176.270538 
	C960.011108,177.594864 957.925659,178.939606 957.390198,180.029648 
	C950.615112,193.820923 941.271057,205.897888 931.679626,217.770737 
	C921.619019,230.224487 909.877441,241.131912 898.241089,252.014099 
	C879.983765,269.088196 861.485840,286.071533 839.632507,298.610016 
	C822.404175,308.494843 804.227478,316.468445 785.905212,324.175415 
	C748.176331,340.045349 709.256042,352.796997 671.434265,368.378143 
	C654.587585,375.318268 636.922424,379.662415 619.873901,385.905090 
	C618.764282,386.311432 617.689880,386.538330 616.396667,388.234802 
	C623.159546,386.673126 629.252319,385.296478 635.330383,383.857330 
	C658.244934,378.431580 681.336731,373.830627 704.352600,368.875244 
	C721.925781,365.091736 739.214478,359.986115 756.788696,356.208069 
	C792.181213,348.599426 826.825684,338.396332 861.122803,326.963318 
	C870.576111,323.812103 879.702820,319.681641 888.982178,316.007507 
	C890.351624,315.465271 891.760925,315.017456 893.106079,314.422455 
	C894.098511,313.983459 895.168091,313.733582 895.752136,314.708374 
	C896.277588,315.585297 895.831604,316.545532 895.095642,317.404358 
	C891.560364,321.529877 888.353333,325.966766 884.570068,329.844513 
	C867.936707,346.893463 850.965576,363.606293 830.838562,376.623566 
	C820.729248,383.161835 809.432983,387.290405 798.181396,391.344818 
	C774.476013,399.886780 750.339905,407.052826 725.875671,413.080780 
	C700.011414,419.453705 673.967407,425.155334 648.279785,432.167999 
	C629.391357,437.324463 610.091980,440.759033 591.402588,446.893616 
	C659.925415,440.358032 728.762085,436.830933 797.280457,423.711090 
	C793.558350,432.156586 787.463989,437.591522 781.467896,442.838165 
	C771.810181,451.288788 761.075562,458.379913 749.413391,463.770996 
	C732.314026,471.675507 714.886597,478.863708 696.121338,481.820221 
	C688.652710,482.996918 681.050781,483.351715 673.501831,483.989258 
	C657.574219,485.334412 641.645142,486.666412 625.708801,487.902618 
	C620.440613,488.311310 615.163696,488.355042 609.875977,488.838470 
	C597.205566,489.996857 584.459656,490.326660 571.745239,491.009216 
	C566.036377,491.315674 561.066895,493.340454 556.649353,497.054169 
	C547.012756,505.155426 535.383789,508.182434 523.245667,510.061737 
	C510.987885,511.959625 498.694794,510.573608 486.424561,510.912476 
	C484.056305,510.977875 481.660309,510.037140 478.738770,509.452911 
	C480.761810,507.502899 483.082977,507.633118 485.088196,506.987518 
	C502.660248,501.330139 520.831665,497.505310 537.539429,489.211731 
	C550.278076,482.888428 559.978149,473.148773 568.802734,462.403870 
	C574.525452,455.435822 580.017395,448.238861 583.591187,439.833649 
	C584.063293,438.723389 585.138489,437.715607 584.292725,434.985107 
	C555.486755,467.086060 517.421753,471.166870 478.332611,472.385071 
	C483.619659,468.244720 489.894440,466.261078 496.000427,463.942657 
	C512.829773,457.552643 530.001404,451.903412 546.103088,443.837921 
	C566.143799,433.799408 582.743042,419.401825 595.960938,401.200317 
	C602.037842,392.832214 607.545959,384.112915 612.447815,375.012695 
	C613.025574,373.940125 614.089233,372.939667 613.660217,371.408661 
	C611.681824,370.721558 610.994324,372.481903 610.144775,373.427826 
	C597.909851,387.050415 582.438904,395.257111 565.294250,400.945618 
	C545.099426,407.646179 524.625061,413.235809 503.814758,417.633087 
	C502.542175,417.901978 500.897552,418.601013 500.371490,417.190094 
	C499.763672,415.559814 501.712341,415.266235 502.793518,414.637085 
	C515.744141,407.100769 529.474976,401.077637 542.697083,394.068481 
	C563.282410,383.156006 583.011658,371.044098 598.892822,353.599792 
	C608.994995,342.503326 617.147461,329.989532 625.125549,317.355194 
	C632.654785,305.431763 640.259399,293.548645 646.539795,280.894257 
	C647.527771,278.903625 648.194824,276.753723 649.186401,274.228943 
	C646.505371,274.248810 645.098999,275.458893 643.680969,276.801636 
	C627.604736,292.024567 609.605103,304.492096 590.360229,315.447449 
	C573.555969,325.013550 555.169128,330.523407 537.564941,338.021332 
	C506.390839,351.298920 473.557159,360.506378 443.324646,376.027985 
	C427.272095,384.269501 413.230591,395.298706 405.541779,412.212463 
	C400.451843,423.409088 397.913177,435.406067 396.848267,447.833069 
	C395.254913,466.426697 395.612976,485.375122 388.984528,503.253479 
	C387.164673,508.162079 385.166229,513.072693 382.597473,517.613342 
	C380.631256,521.088867 381.232513,523.167419 384.043671,525.621460 
	C390.905212,531.611206 395.420227,539.088684 397.543854,548.015869 
	C402.274506,567.901978 393.766052,586.613770 376.264801,596.486511 
	C360.339661,605.470215 341.464935,604.354248 328.780762,592.002258 
	C320.814301,584.244385 315.208038,574.749695 314.961182,562.931946 
	C314.769653,553.762756 314.750092,544.735901 320.970886,537.079956 
	C325.583618,531.403076 330.737030,526.339722 337.261414,522.222412 
z"/>
<path fill="#CD2E2C" opacity="1.000000" stroke="none" 
	d="
M672.668457,600.744812 
	C672.457947,613.847412 669.524841,626.287354 666.643127,638.740601 
	C660.357239,665.905457 649.775757,691.446411 636.907349,716.044922 
	C628.146729,732.791321 617.235046,748.185486 605.525208,763.020874 
	C596.758423,774.127686 586.842896,784.160156 576.574402,793.801514 
	C559.405273,809.921936 540.781067,824.185181 520.471680,836.225830 
	C494.053284,851.888000 465.864380,863.163208 436.078308,870.381714 
	C422.706207,873.622314 409.233704,876.314941 395.370605,877.159119 
	C380.322876,878.075195 365.295166,879.294312 350.218658,878.958008 
	C323.496918,878.361877 297.244293,874.610413 271.588165,866.869934 
	C251.279953,860.742981 231.647324,852.965881 212.978821,842.930847 
	C194.164139,832.817139 176.460144,821.003784 159.847855,807.493408 
	C149.513611,799.088867 140.008804,789.863953 130.866302,780.267822 
	C114.364754,762.947510 100.480049,743.646179 88.439781,722.973328 
	C78.177475,705.353333 68.785164,687.270508 62.209160,667.985901 
	C54.969887,646.756165 49.710491,624.979553 46.875637,602.626953 
	C44.768093,586.009155 43.342571,569.343140 44.126015,552.663818 
	C45.867245,515.593689 52.332283,479.459534 66.472908,444.845398 
	C76.321945,420.736420 88.036606,397.716705 102.939659,376.363983 
	C110.667694,365.291443 119.165482,354.862823 128.394897,344.940460 
	C147.693527,324.192841 169.459335,306.514008 193.247391,291.295929 
	C224.177856,271.508606 257.526917,257.474609 293.552032,249.931396 
	C311.769470,246.116898 330.082367,243.711792 348.726135,242.786499 
	C368.287170,241.815704 387.527283,243.364929 406.843201,245.894592 
	C424.610596,248.221481 441.998474,252.061340 458.853302,257.993744 
	C479.918823,265.408173 500.411194,274.179626 519.137268,286.586334 
	C523.341919,289.372070 523.299133,289.773926 518.588074,292.102631 
	C508.737244,296.971832 498.527802,300.952271 488.130676,304.506165 
	C484.776855,305.652588 481.452240,304.850616 479.147675,303.340546 
	C455.338898,287.739716 428.791595,279.034149 401.496399,272.396820 
	C390.514771,269.726440 379.239838,268.407806 367.840576,267.768097 
	C359.051575,267.274872 350.284363,267.207001 341.505493,266.998718 
	C320.227448,266.493927 299.744507,270.988953 279.460602,276.798431 
	C262.901581,281.541016 246.520950,286.727844 231.261002,294.928741 
	C213.018860,304.732300 195.472885,315.556000 179.526825,328.886810 
	C169.754318,337.056610 160.101379,345.338135 151.129562,354.383698 
	C133.886200,371.768799 119.406219,391.253510 107.200890,412.453552 
	C89.272476,443.594238 78.201958,477.241333 71.113693,512.276672 
	C66.523384,534.965332 65.918503,558.041870 67.215195,581.009094 
	C68.406952,602.117493 72.586052,622.867065 78.536316,643.257629 
	C83.978027,661.905518 90.762756,679.952148 100.030792,697.018372 
	C111.401588,717.956543 123.596779,738.295471 139.579483,756.238953 
	C156.926117,775.713684 176.028641,793.044067 197.495209,807.857117 
	C228.132568,828.998352 261.946503,842.646118 298.039398,850.969116 
	C311.714661,854.122681 325.508972,856.662659 339.647278,856.806335 
	C327.426422,853.489258 315.042633,850.937622 302.939056,847.177307 
	C287.007233,842.227600 272.174255,834.955811 257.620850,827.047668 
	C237.437927,816.080383 220.640198,800.809082 204.246567,784.937317 
	C194.783768,775.775757 184.250641,767.730835 174.462677,758.891602 
	C156.195755,742.395325 142.128174,722.499207 128.960953,701.895508 
	C113.870880,678.283081 104.830147,652.212158 98.106354,625.276001 
	C94.932022,612.559448 93.102791,599.576172 91.829239,586.468933 
	C90.358795,571.335205 90.202820,556.137329 91.292351,541.155090 
	C93.388145,512.335754 99.020218,484.180237 110.730339,457.346588 
	C121.157257,433.453369 133.382065,410.669006 149.530182,390.283783 
	C165.584106,370.017456 184.128281,352.147919 205.318741,337.082092 
	C228.772064,320.407349 254.044922,307.467194 281.481873,298.861023 
	C297.284088,293.904419 313.366394,290.292145 329.968048,288.849609 
	C341.182648,287.875214 352.364471,287.169403 363.619080,286.920593 
	C385.219421,286.443024 406.208649,289.869019 426.977570,295.440918 
	C440.866486,299.167053 454.663635,303.084656 467.878296,309.566467 
	C468.165283,310.090118 468.288330,310.294891 468.226990,310.806946 
	C460.210693,314.673523 452.986359,319.568268 443.348419,316.288483 
	C425.981598,310.378723 408.166077,305.735352 389.851288,304.165436 
	C374.202332,302.824036 358.507721,302.507538 342.712341,303.757172 
	C326.765045,305.018768 311.007965,307.041473 295.617157,311.116333 
	C264.690491,319.304443 236.549347,333.362427 210.890945,352.520203 
	C198.580399,361.711823 187.225052,371.872894 176.526794,382.881500 
	C163.601593,396.181671 152.916061,411.098694 143.532715,426.994659 
	C129.686600,450.450897 119.768631,475.531311 113.553017,502.021179 
	C110.858925,513.502869 109.153984,525.173462 107.837112,536.935852 
	C106.552956,548.406189 107.338814,559.828552 107.024918,571.266113 
	C106.478264,591.184509 110.343040,610.537598 115.400917,629.625671 
	C120.237991,647.880493 127.069771,665.465820 136.078873,682.092834 
	C144.928131,698.424866 155.275543,713.752197 167.330338,727.967407 
	C175.691055,737.826416 184.701721,747.047974 194.290131,755.593384 
	C214.117340,773.263489 235.930206,787.913513 260.563477,798.419739 
	C283.347961,808.137390 307.035950,814.436707 331.370819,817.673279 
	C350.234955,820.182251 369.383057,819.431213 388.476288,818.233154 
	C403.169769,817.311157 417.547180,815.218323 431.549225,810.928528 
	C458.686005,802.614746 484.304077,790.993408 507.359497,774.237305 
	C525.193420,761.275940 541.181396,746.299377 555.903137,729.855652 
	C561.429260,723.683105 566.406128,717.007446 572.725830,711.638672 
	C546.097656,758.092224 508.357574,792.303406 458.981781,813.475037 
	C409.660522,834.623291 358.341705,836.014832 306.122253,828.283936 
	C318.726471,832.466858 331.548950,835.385315 344.666870,837.018738 
	C353.679474,838.140991 362.715546,838.979919 371.800415,838.984436 
	C407.942749,839.002380 442.435364,831.256042 475.505280,816.840881 
	C496.863953,807.530640 516.180603,794.949341 534.203613,780.294006 
	C551.847107,765.947205 567.295593,749.535950 581.157471,731.493591 
	C593.008850,716.068054 603.405823,699.726807 611.677124,682.238953 
	C619.510071,665.678162 624.280701,647.850830 629.917969,630.420776 
	C631.544800,625.390747 633.830872,621.523376 638.581116,618.800659 
	C647.955017,613.427612 657.046692,607.563477 666.290588,601.961060 
	C667.809875,601.040222 669.301880,599.869934 671.649963,600.103760 
	C672.186401,600.279114 672.344971,600.391663 672.668457,600.744812 
z"/>
<path fill="#CD2E2C" opacity="1.000000" stroke="none" 
	d="
M426.203369,326.818359 
	C420.256622,332.145294 414.211639,335.848999 405.990784,333.172821 
	C402.282379,331.965637 401.174011,334.499390 400.954529,337.848907 
	C400.670929,342.176575 399.210846,345.886383 394.120575,347.301392 
	C393.542297,347.434296 393.253784,347.394775 392.565948,347.178101 
	C391.462128,343.130219 393.060852,339.543823 393.654358,335.847412 
	C394.084595,333.168030 394.145355,331.436707 390.789368,330.940308 
	C382.794434,329.757751 374.790436,328.982574 366.699585,328.969360 
	C363.389648,328.963959 364.018311,331.180786 364.015198,333.060608 
	C363.990082,348.208527 363.670197,363.367004 364.149384,378.499786 
	C364.365540,385.325592 360.365509,389.670746 357.542114,395.315613 
	C355.413544,393.503906 356.033966,391.601715 356.029877,389.971741 
	C355.983337,371.328156 355.858307,352.682587 356.106171,334.042206 
	C356.163269,329.748596 354.836334,328.550049 350.779755,328.945465 
	C344.378296,329.569489 337.939331,329.799377 331.521576,330.269409 
	C327.996887,330.527588 326.416992,332.281464 326.966064,336.018829 
	C328.157593,344.129425 329.022705,352.288422 330.239258,360.394897 
	C332.060303,372.529266 334.293854,384.605194 335.931213,396.762634 
	C337.418976,407.809479 340.225006,418.697937 340.045746,429.963898 
	C340.009521,432.239258 339.865326,434.256561 337.497192,435.820435 
	C336.697815,436.057373 336.224213,436.120636 335.317596,435.612762 
	C332.194550,426.622223 331.624023,417.800903 330.056610,409.171661 
	C327.598969,395.641876 325.407562,382.061432 323.280609,368.474670 
	C321.708344,358.430969 320.164551,348.368927 319.135193,338.261353 
	C318.757019,334.548065 317.269440,333.760315 314.113373,333.985382 
	C308.186951,334.408081 302.470520,335.914856 296.854279,337.637512 
	C275.600525,344.156586 255.201370,352.505066 237.171219,365.908112 
	C231.763794,369.927856 231.354828,369.852875 234.830246,375.389557 
	C244.849457,391.351166 255.590652,406.830994 266.602234,422.124817 
	C273.402679,431.569794 280.133789,441.065582 286.790741,450.612000 
	C287.895752,452.196625 288.845551,454.072723 286.653564,455.873260 
	C284.549805,457.601349 282.840729,457.288116 280.990387,455.528015 
	C276.893860,451.631195 273.973358,446.841400 270.772491,442.267365 
	C255.368118,420.254333 239.989044,398.223633 224.300201,376.016266 
	C223.542450,375.463989 223.064514,375.189240 222.229279,375.662476 
	C216.288925,380.046326 210.818451,384.531097 205.845139,389.619476 
	C203.323502,392.199432 202.513397,394.052307 205.606705,397.295441 
	C221.979279,414.460999 238.292755,431.678284 254.905182,448.616821 
	C258.936096,452.726898 262.742706,457.121521 266.900452,461.586487 
	C267.165283,462.090118 267.288330,462.294891 267.226990,462.806946 
	C263.577667,466.418823 260.101074,465.946899 256.294800,462.989868 
	C255.813644,462.720825 255.655014,462.608337 255.331512,462.255157 
	C240.988297,447.720428 226.776596,433.459137 212.652527,419.111603 
	C208.594177,414.989014 204.886520,410.521790 200.841202,406.385529 
	C196.368652,401.812592 194.700638,401.950134 190.232712,406.221313 
	C187.110474,409.206146 184.413925,412.515259 181.998306,416.061829 
	C177.711594,422.355499 177.640884,422.505798 183.712463,427.144470 
	C201.289963,440.573578 219.006546,453.821259 236.522858,467.329041 
	C238.780853,469.070343 241.497849,470.506378 243.010986,473.535034 
	C243.165283,474.090088 243.288361,474.294861 243.227020,474.806946 
	C240.442917,478.222137 237.725510,477.586884 234.868958,475.457092 
	C221.994446,465.858063 209.091278,456.297424 196.214355,446.701569 
	C189.509857,441.705444 182.698303,436.836884 176.222382,431.558258 
	C173.702118,429.503998 172.056335,429.795532 170.496307,432.072754 
	C167.905365,435.854889 165.147583,439.601288 163.157135,443.701141 
	C157.568649,455.212158 150.904785,466.252625 146.916626,478.483154 
	C143.071182,490.275940 139.597641,502.190582 136.017792,514.068909 
	C135.174347,516.867554 135.767944,518.485962 139.239929,519.087402 
	C151.479965,521.207703 163.655731,523.700256 175.849533,526.084045 
	C176.801331,526.270142 177.684570,526.794617 178.634354,527.006226 
	C179.911011,527.290649 180.795776,527.927856 180.903687,529.261353 
	C181.032974,530.859070 179.984299,531.397339 178.638443,532.030090 
	C173.997345,534.212280 169.557724,532.006775 165.127899,531.462952 
	C156.206482,530.367920 147.536896,527.666565 138.520782,526.966553 
	C135.512955,526.732971 134.464005,528.183716 133.989838,530.848389 
	C132.643631,538.413513 133.129517,546.039551 132.955215,553.648560 
	C132.894272,556.309448 133.848679,557.096741 136.416809,557.042053 
	C142.910141,556.903809 149.408585,556.970642 155.904678,557.009277 
	C161.279190,557.041260 161.716766,557.719360 160.014984,563.670532 
	C159.720856,564.186401 159.608383,564.344971 159.255371,564.668457 
	C151.687607,564.889404 144.358826,565.054077 137.034012,564.946899 
	C134.186096,564.905334 132.856201,565.440613 132.922440,568.734924 
	C133.082245,576.684387 132.982727,584.629211 133.965057,592.548767 
	C134.256622,594.899475 134.927719,594.877319 137.134018,594.523621 
	C144.098862,593.406860 151.149506,592.825134 158.597443,592.101501 
	C159.186539,592.279175 159.345108,592.391724 159.668518,592.744873 
	C160.814209,597.647156 158.776886,599.567810 154.169235,600.096680 
	C148.987183,600.691528 143.916000,602.260925 138.733307,602.838440 
	C135.562393,603.191772 135.614929,605.030518 136.131577,606.928162 
	C142.110886,628.890381 147.785706,650.933899 159.787109,670.723083 
	C163.518097,676.875122 166.677628,683.377991 170.625397,689.449524 
	C172.582794,692.459900 173.666626,692.250610 176.330261,690.300598 
	C202.918320,670.835022 229.625519,651.532227 256.307312,632.194824 
	C257.232910,631.523987 258.192688,630.859924 259.225098,630.385254 
	C261.382477,629.393250 263.135712,630.161377 264.415039,631.996582 
	C265.913635,634.146240 264.303711,635.461365 262.846069,636.531067 
	C248.444305,647.100220 233.971237,657.572327 219.580994,668.156982 
	C206.368088,677.875732 193.241180,687.711365 180.050964,697.461060 
	C178.426987,698.661377 178.340317,699.941467 179.185852,701.630127 
	C182.709152,708.666992 188.453293,713.963013 193.414398,719.869385 
	C195.034637,721.798340 196.546753,720.984131 198.036896,719.490662 
	C213.222275,704.271301 228.831055,689.448120 243.485916,673.734924 
	C252.906540,663.634033 262.985199,654.213196 272.342133,644.081970 
	C275.535583,640.624207 277.698883,642.614197 280.252655,644.715271 
	C283.739105,647.583801 280.476532,648.938110 278.968140,650.479797 
	C260.348633,669.509399 241.699341,688.510132 223.007980,707.469238 
	C216.108322,714.467712 209.077866,721.337280 202.083008,728.289551 
	C207.537659,734.702637 213.733078,739.958191 219.861313,745.267944 
	C222.586182,747.628967 224.808853,747.461670 227.076630,744.011353 
	C244.550430,717.425903 263.782043,692.082275 282.377686,666.289429 
	C284.104034,663.894897 286.406952,661.965820 288.139923,659.500244 
	C289.621643,657.392090 292.236176,656.349182 294.769043,657.155640 
	C296.912292,657.838135 299.229614,658.892334 296.542114,662.039917 
	C273.807922,688.666565 254.705856,717.957825 234.727737,746.606323 
	C230.278748,752.986206 230.338867,752.826416 236.073135,757.046082 
	C259.347900,774.172485 286.103607,783.254456 313.552765,790.746887 
	C315.972992,791.407532 317.809875,791.427246 318.219574,787.809387 
	C319.176941,779.355469 320.752289,770.973267 321.988922,762.549011 
	C324.156311,747.784485 326.241760,733.007935 328.391449,718.240784 
	C329.902588,707.860107 331.526520,697.495300 332.949402,687.102783 
	C333.238953,684.988159 333.159760,682.912842 336.030243,683.058472 
	C338.575165,683.187744 340.142029,684.722168 339.940338,687.241211 
	C339.349426,694.621399 338.722412,702.008362 337.759888,709.346802 
	C336.331879,720.234558 334.632111,731.087158 332.996002,741.946899 
	C330.823181,756.369446 328.740326,770.807983 326.331024,785.191467 
	C325.346191,791.070862 325.849884,792.760620 331.622284,793.711914 
	C338.143951,794.786804 344.746887,795.345459 351.399811,795.033569 
	C353.908600,794.915894 355.013580,793.970581 355.009796,791.425720 
	C354.975769,768.425964 355.457977,745.411316 354.727173,722.434753 
	C354.480347,714.674072 354.386719,706.874695 353.991089,699.103149 
	C353.896759,697.250488 354.087067,695.478821 355.076782,693.409485 
	C355.433655,692.877686 355.700684,692.763428 356.399475,692.591431 
	C358.335052,693.027466 359.838837,693.521301 361.685181,694.090942 
	C362.186340,694.279114 362.344971,694.391663 362.668457,694.744812 
	C362.888916,725.141663 362.945648,755.297852 362.999359,785.454041 
	C363.015137,794.310913 363.707336,794.835876 372.610382,795.059875 
	C378.103943,795.198059 383.493469,794.480652 388.918854,793.982239 
	C392.037750,793.695679 393.393402,791.749634 392.937592,788.871826 
	C390.888885,775.938049 388.710693,763.024536 386.548462,750.108887 
	C384.385803,737.190674 382.208099,724.274780 379.988251,711.366333 
	C379.436005,708.155029 378.695831,704.976013 378.104370,701.377197 
	C378.279175,700.813599 378.391663,700.655029 378.744843,700.331543 
	C380.714203,700.123230 382.442871,700.079773 384.599640,700.101440 
	C385.186340,700.279114 385.344971,700.391663 385.668457,700.744812 
	C389.459991,706.831177 388.820801,713.636719 389.904572,720.010315 
	C393.058380,738.558167 395.348724,757.244507 398.752502,775.762085 
	C399.519928,779.937256 400.593323,784.107910 400.901733,788.336121 
	C401.107574,791.157776 402.655304,791.346497 404.514252,790.918518 
	C419.321991,787.509644 434.134949,784.034363 448.118805,777.922913 
	C459.990234,772.734741 471.353271,766.582764 481.945923,759.045227 
	C487.817566,754.867065 488.152679,754.226318 484.018280,748.177490 
	C474.699249,734.543274 465.259918,720.991211 455.700928,707.125061 
	C455.439056,706.471436 455.345856,706.098450 455.646301,705.304199 
	C462.421326,703.932373 465.949188,707.670715 469.199951,712.431396 
	C477.041656,723.915100 485.214386,735.172974 493.036957,746.669434 
	C494.590424,748.952515 495.208496,748.710266 497.421295,747.404663 
	C504.284271,743.355530 508.923096,736.993103 514.692078,731.827271 
	C516.145508,730.525818 516.145081,729.450989 514.690674,728.162415 
	C513.323853,726.951477 512.092285,725.588257 510.796051,724.297363 
	C503.754028,717.283813 496.648041,710.331299 490.099335,702.413147 
	C489.839935,701.950317 489.722809,701.786743 489.803070,701.394897 
	C497.376770,697.744812 498.377472,697.923767 503.781311,703.268372 
	C509.426819,708.852112 514.747131,714.718811 519.575989,721.026794 
	C521.360413,723.357849 523.219971,723.720337 525.247192,721.261292 
	C530.058655,715.424927 534.822693,709.546204 539.770935,703.827332 
	C541.566956,701.751587 540.874817,700.496826 539.336487,698.762573 
	C535.787170,694.761230 530.994385,692.310608 527.187683,688.661072 
	C525.783447,687.314819 523.952393,686.083923 525.802246,683.683105 
	C527.584961,681.369385 529.525391,681.884583 531.426758,683.203857 
	C535.331055,685.912842 539.292358,688.575562 542.941406,691.605103 
	C545.845825,694.016418 547.520630,693.024963 549.164551,690.338867 
	C552.926086,684.192871 556.775024,678.099854 560.494385,671.928589 
	C564.313171,665.592346 570.494019,663.368591 577.631226,662.101929 
	C578.186401,662.279114 578.344971,662.391663 578.668457,662.744812 
	C576.141113,673.857910 569.555298,682.758728 563.931152,692.118530 
	C553.090515,710.159485 540.098572,726.512268 524.641785,740.841309 
	C504.911560,759.132019 484.330719,776.262512 459.236145,786.911804 
	C439.763580,795.175293 419.683319,801.428589 398.786469,805.066528 
	C376.983398,808.862183 354.915619,807.933105 333.208282,806.475830 
	C311.760895,805.036072 290.910645,798.276550 270.717010,790.355530 
	C250.101273,782.268921 231.200943,771.335571 213.876099,757.494934 
	C201.504471,747.611389 190.534592,736.301819 179.623306,724.956604 
	C169.702988,714.641663 161.441147,702.904236 154.291077,690.511536 
	C144.935425,674.296021 136.522675,657.534607 131.119446,639.567261 
	C124.440338,617.357239 118.909012,594.917297 119.778328,571.323120 
	C119.993210,565.490784 118.875038,559.466614 119.026703,553.514099 
	C119.514030,534.388916 122.791481,515.728516 127.785561,497.255493 
	C132.112061,481.251892 137.106537,465.497955 144.311798,450.609192 
	C151.312836,436.142487 159.651093,422.391418 169.710022,409.745331 
	C178.616196,398.548492 188.651657,388.410431 199.001358,378.615570 
	C212.162552,366.159882 226.886505,355.787445 242.584686,346.654297 
	C263.892731,334.257324 286.762024,326.200134 310.637573,320.745087 
	C322.328949,318.073853 334.132599,315.916046 346.216339,315.994843 
	C360.491730,316.087952 374.816315,315.328644 389.012543,317.099121 
	C399.872559,318.453552 410.625031,320.668060 421.196198,323.621582 
	C422.297241,323.929169 423.452454,324.042877 424.807312,324.560028 
	C425.492767,325.407410 426.232117,325.710419 426.203369,326.818359 
z"/>
<path fill="#CD2E2C" opacity="1.000000" stroke="none" 
	d="
M317.714294,617.066650 
	C311.224945,617.779175 305.759949,614.970032 299.859314,614.309448 
	C314.067749,625.242920 328.400085,635.484619 346.925995,638.148193 
	C362.925049,640.448486 377.998077,638.083618 392.816620,632.216797 
	C393.862610,631.802673 395.621979,630.038940 396.734802,631.792236 
	C397.730042,633.360229 395.950806,634.410400 394.999146,635.518860 
	C388.607941,642.962830 379.812836,646.616394 370.938263,650.883789 
	C372.704712,652.693115 375.002319,653.232117 377.200867,654.148071 
	C392.681915,660.597900 408.828796,664.693237 425.230713,667.857666 
	C427.584106,668.311707 431.259430,669.101990 432.290405,667.403076 
	C433.494507,665.418823 430.344025,663.257019 428.866089,661.570251 
	C424.201324,656.246460 421.295898,650.103821 419.286835,643.465088 
	C418.786987,641.813477 418.170013,639.538452 419.756378,638.437683 
	C420.737793,637.756653 422.321411,639.291077 423.594482,640.034729 
	C434.547913,646.433167 446.470581,650.588135 458.290802,655.012512 
	C471.019318,659.776794 484.383881,662.412598 497.176758,666.938843 
	C498.862427,667.535217 500.636627,667.851501 502.210602,670.310974 
	C484.250397,677.675964 466.908875,676.540283 448.992401,668.729797 
	C450.322571,674.204773 453.989777,677.344666 456.644043,681.056335 
	C458.035400,683.002075 459.678040,684.933350 458.760254,687.313416 
	C457.743469,689.950378 455.043610,688.944336 453.013275,688.964844 
	C444.682068,689.048767 436.349457,689.015015 428.017426,688.997253 
	C400.824585,688.939392 375.194122,682.524780 350.429626,671.312988 
	C325.220581,659.899902 302.841370,644.396606 281.500519,627.079346 
	C270.178680,617.892090 259.801331,607.101379 245.978729,601.680237 
	C233.710281,596.868652 221.391037,592.018799 207.904266,590.847229 
	C195.794296,589.795288 190.464340,599.996338 190.019043,608.585571 
	C189.898407,610.912415 189.985489,613.250671 189.994797,615.583557 
	C190.009750,619.332764 188.115707,619.216797 185.543915,617.813477 
	C183.367035,616.625732 182.477951,614.334839 181.251907,612.451965 
	C174.398270,601.927185 170.202103,590.846375 170.712219,577.725708 
	C171.102753,567.680908 172.278824,558.391541 178.388428,550.274902 
	C183.477188,543.514526 189.918091,538.201660 197.227646,533.951416 
	C205.540710,529.117798 212.013474,522.485352 216.969742,514.252563 
	C222.921753,504.365814 232.125809,497.921906 241.551147,491.841614 
	C261.611694,478.900543 284.452698,472.917999 306.885803,465.869965 
	C318.747742,462.143188 330.770020,459.034058 342.710297,455.612427 
	C344.828400,455.005463 347.255341,454.107361 348.677917,455.852875 
	C350.199921,457.720459 347.882812,459.431946 346.958435,461.077606 
	C340.094330,473.297546 328.625336,479.339783 316.136749,484.057281 
	C295.015167,492.035828 273.162964,498.154236 253.143387,508.943787 
	C243.578796,514.098633 235.740082,521.239441 228.468414,529.269897 
	C235.715164,532.964905 242.155548,530.183960 248.256287,527.210632 
	C260.643921,521.173462 273.612244,516.589783 286.340668,511.412140 
	C288.247559,510.636444 290.405823,509.022980 293.015228,510.730652 
	C289.767365,516.321838 285.025879,520.242188 279.791260,523.597107 
	C276.346222,525.805115 274.237976,528.504761 272.779327,532.583801 
	C269.080841,542.926270 264.332733,548.830994 251.782928,544.493530 
	C241.781586,541.036743 231.302505,539.931641 220.690582,539.921570 
	C217.084106,539.918152 214.272903,541.643066 211.557663,543.277832 
	C199.968964,550.254883 191.152939,559.315186 189.929016,573.784302 
	C189.643814,577.155823 187.346634,581.194031 190.679642,583.452454 
	C193.742645,585.527954 196.853790,582.120789 199.583572,580.643677 
	C212.335068,573.743713 225.923950,571.212036 240.319351,570.829834 
	C251.203430,570.540771 261.897461,570.356384 272.306000,573.989624 
	C276.783844,575.552673 280.934967,577.689941 284.631165,581.319763 
	C282.780975,582.398499 281.113739,581.979675 279.561859,581.975159 
	C272.107300,581.953247 264.658356,581.871948 257.248779,582.969238 
	C256.028656,583.149902 254.698914,583.229309 254.336761,584.428589 
	C253.757721,586.346191 255.644623,585.934998 256.552826,586.185303 
	C280.187286,592.699219 301.597839,604.790833 324.438843,613.296692 
	C326.265503,613.976990 329.701538,614.505615 329.250610,616.708740 
	C328.750183,619.153564 325.513367,617.752625 323.480316,617.959473 
	C321.679108,618.142883 319.805389,618.206055 317.714294,617.066650 
z"/>
<path fill="#CD2E2C" opacity="1.000000" stroke="none" 
	d="
M569.019531,505.000000 
	C611.400452,502.891174 653.343567,505.012695 695.225159,503.645325 
	C705.766235,503.301178 716.769897,505.254791 727.125122,501.119720 
	C727.902710,500.809204 729.558472,500.629456 729.628296,501.757080 
	C729.698608,502.892731 728.977051,504.328918 728.157288,505.227173 
	C723.128418,510.737518 717.166870,515.113770 710.850647,519.034119 
	C692.055176,530.700134 671.421753,536.109802 649.526306,538.162170 
	C634.896118,539.533386 620.281067,539.326416 605.731445,538.780334 
	C586.467285,538.057312 567.260803,535.840576 547.989990,534.707886 
	C543.842041,534.464050 540.865479,535.085938 537.589294,537.071716 
	C521.791931,546.646606 504.911560,548.175842 487.241119,543.641052 
	C483.771881,542.750732 480.232666,542.135010 476.754089,541.277649 
	C475.547974,540.980286 473.563477,541.167786 473.542084,539.553772 
	C473.520416,537.917236 475.354736,538.171082 476.629944,537.943420 
	C482.948822,536.815002 489.321686,535.982483 495.723633,536.068481 
	C502.863861,536.164429 509.985809,535.651184 516.927368,534.406616 
	C527.572754,532.497864 535.028259,525.048950 542.585449,517.946960 
	C546.359131,514.400635 549.859253,510.418854 553.773621,507.258209 
	C557.592468,504.174622 563.436646,504.873901 569.019531,505.000000 
z"/>
<path fill="#CD2E2C" opacity="1.000000" stroke="none" 
	d="
M568.122986,548.999390 
	C580.315979,549.234192 591.608459,552.161316 602.999451,554.493652 
	C612.794861,556.499207 622.703003,557.754150 632.611511,559.078003 
	C645.928589,560.857239 659.430969,560.893982 673.013550,563.379517 
	C671.609741,567.383850 668.072754,569.011658 665.228699,570.803223 
	C655.796326,576.744934 645.980774,582.054260 635.563660,586.142883 
	C634.811096,586.438293 634.037476,586.950928 633.283813,586.932983 
	C618.746521,586.587646 604.121155,588.332642 589.714172,584.891052 
	C568.905762,579.920288 548.130432,574.777405 527.204407,570.353821 
	C521.225525,569.089966 514.721497,569.070923 508.738678,572.043091 
	C495.628815,578.556030 483.075653,576.089844 470.889618,569.331299 
	C468.889038,568.221741 466.996246,566.908508 465.107239,565.611389 
	C464.239594,565.015564 462.699677,564.829468 463.106201,563.216309 
	C463.595154,561.276062 465.292389,561.975342 466.412628,562.060730 
	C470.348145,562.360779 474.379700,562.516052 478.190613,563.179749 
	C497.546997,566.550659 514.139771,560.438904 529.250305,549.052490 
	C531.324646,547.489319 533.175659,546.985779 535.537598,546.981445 
	C546.288757,546.961670 556.977356,547.877197 568.122986,548.999390 
z"/>
<path fill="#CD2E2C" opacity="1.000000" stroke="none" 
	d="
M451.229553,585.456543 
	C450.893616,582.940674 450.818542,581.834473 453.913727,582.803040 
	C463.521454,585.809448 473.445251,587.230042 483.551544,586.991333 
	C489.986176,586.839417 496.212830,585.226807 502.448761,583.909180 
	C514.337524,581.397217 525.718811,583.469116 536.815125,587.451965 
	C559.416687,595.564514 581.138062,606.097412 604.532166,612.048401 
	C606.010376,612.424500 608.484070,612.459473 608.620178,613.951904 
	C608.823730,616.184448 606.324280,616.982422 604.561340,617.693237 
	C581.272644,627.082642 558.121094,628.017090 534.919250,617.050049 
	C520.856018,610.402649 506.489410,604.398315 492.281921,598.054016 
	C488.920868,596.553101 485.673553,595.464844 481.936554,596.968445 
	C473.199829,600.483521 466.402100,595.092896 459.323090,591.574097 
	C456.432709,590.137329 454.010132,587.759521 451.229553,585.456543 
z"/>
<path fill="#CD2E2C" opacity="1.000000" stroke="none" 
	d="
M502.860382,369.951355 
	C510.335175,367.215027 517.416931,364.529205 525.522034,361.455261 
	C523.356873,366.541229 519.494812,367.939636 516.433960,369.670319 
	C498.577545,379.766785 481.119019,390.451782 464.910217,403.052368 
	C448.208984,416.035767 436.312683,432.362366 430.994141,453.104736 
	C426.241180,471.641266 421.536346,490.200348 413.595703,507.710907 
	C412.523132,510.076111 411.957184,513.195007 408.010162,513.946411 
	C410.170715,503.048065 410.263458,492.247101 411.653778,481.566742 
	C412.333984,476.341400 412.616821,471.061310 412.990967,465.799652 
	C415.124817,435.789948 425.864685,410.580353 451.443085,392.611176 
	C464.484833,383.449127 479.519440,379.405060 493.694977,373.141724 
	C496.528381,371.889771 499.538666,371.038116 502.860382,369.951355 
z"/>
<path fill="#CD2E2C" opacity="1.000000" stroke="none" 
	d="
M450.245575,616.744263 
	C447.025879,612.755737 443.973602,609.086914 441.158112,605.244568 
	C440.484497,604.325317 439.326233,602.980042 440.329468,601.635986 
	C441.382660,600.225037 442.587799,601.705444 443.374268,602.072693 
	C458.990631,609.364197 476.172577,612.311523 491.802673,619.460938 
	C503.023102,624.593384 512.716736,632.316711 523.030396,638.984680 
	C531.154724,644.237305 539.371277,649.348755 548.096375,653.582458 
	C549.357727,654.194580 551.315796,654.566162 550.661560,656.580750 
	C550.196289,658.013306 548.635986,658.010254 547.254333,658.007629 
	C535.758118,657.986023 524.246704,658.353943 512.771240,657.866028 
	C505.406250,657.552979 499.007751,653.471252 492.867096,649.820496 
	C482.740845,643.800110 472.326538,638.168274 462.955261,630.952271 
	C457.957397,627.103882 454.770233,621.548645 450.245575,616.744263 
z"/>
<path fill="#CD2E2C" opacity="1.000000" stroke="none" 
	d="
M606.955933,659.839600 
	C604.703552,663.568359 604.103638,667.931213 599.671997,671.269836 
	C600.976074,665.765869 601.863647,661.230774 603.147400,656.810730 
	C604.602173,651.801636 606.460632,646.940979 607.149475,641.691467 
	C607.459167,639.331360 609.887573,637.727844 612.194153,638.269592 
	C614.954834,638.918030 613.166016,641.585876 612.800659,642.825317 
	C611.143127,648.449219 608.982910,653.924927 606.955933,659.839600 
z"/>
<path fill="#CD2E2C" opacity="1.000000" stroke="none" 
	d="
M426.375549,327.062622 
	C425.776093,326.569641 425.526917,326.004761 425.154907,325.156708 
	C425.930573,325.263519 427.307587,324.463226 427.770203,325.845642 
	C428.016266,326.580841 427.355865,326.858673 426.375549,327.062622 
z"/>
<path fill="#CD2E2C" opacity="1.000000" stroke="none" 
	d="
M455.871521,704.603882 
	C455.955627,705.209839 455.871155,705.536804 455.659546,706.354065 
	C454.875946,706.258484 453.879608,705.827087 454.204285,704.703430 
	C454.439331,703.890015 455.122009,704.146179 455.871521,704.603882 
z"/>
<path fill="#CD2E2C" opacity="1.000000" stroke="none" 
	d="
M222.331329,375.894897 
	C222.488129,375.136688 223.029312,374.742340 223.887924,375.677490 
	C223.553848,375.874359 223.108261,375.915405 222.331329,375.894897 
z"/>
<path fill="#CD2E2C" opacity="1.000000" stroke="none" 
	d="
M334.944061,435.369385 
	C335.266571,435.198090 335.648560,435.354553 336.600983,435.752563 
	C336.264862,437.237579 335.500885,437.440552 334.944061,435.369385 
z"/>
<path fill="#CD2E2C" opacity="1.000000" stroke="none" 
	d="
M468.272400,311.011108 
	C468.040283,310.909393 468.037964,310.704590 468.038940,310.192566 
	C468.457886,310.108246 469.018280,310.266052 468.272400,311.011108 
z"/>
<path fill="#CD2E2C" opacity="1.000000" stroke="none" 
	d="
M159.258759,564.846313 
	C159.183640,564.641479 159.361282,564.458069 159.690521,564.155457 
	C159.966782,564.401855 159.856583,564.678955 159.258759,564.846313 
z"/>
<path fill="#CD2E2C" opacity="1.000000" stroke="none" 
	d="
M489.759644,701.159180 
	C490.000427,701.166626 489.980927,701.640381 489.968964,701.877075 
	C489.713043,701.920532 489.463867,701.732605 489.239319,701.518860 
	C489.227081,701.507202 489.420929,701.279053 489.759644,701.159180 
z"/>
<path fill="#CD2E2C" opacity="1.000000" stroke="none" 
	d="
M385.846252,700.741455 
	C385.641449,700.816528 385.458008,700.638794 385.155396,700.309448 
	C385.401794,700.033142 385.678955,700.143433 385.846252,700.741455 
z"/>
<path fill="#CD2E2C" opacity="1.000000" stroke="none" 
	d="
M378.741455,700.153687 
	C378.816528,700.358521 378.638824,700.541931 378.309509,700.844543 
	C378.033234,700.598145 378.143494,700.321045 378.741455,700.153687 
z"/>
<path fill="#CD2E2C" opacity="1.000000" stroke="none" 
	d="
M362.846252,694.741455 
	C362.641449,694.816528 362.458008,694.638794 362.155396,694.309448 
	C362.401794,694.033142 362.678955,694.143433 362.846252,694.741455 
z"/>
<path fill="#CD2E2C" opacity="1.000000" stroke="none" 
	d="
M356.604431,692.337524 
	C356.554352,692.611755 356.277435,692.690002 355.583557,692.880005 
	C355.205048,692.188293 355.737488,692.088196 356.604431,692.337524 
z"/>
<path fill="#CD2E2C" opacity="1.000000" stroke="none" 
	d="
M578.846313,662.741455 
	C578.641418,662.816528 578.457947,662.638794 578.155396,662.309448 
	C578.401855,662.033264 578.678955,662.143494 578.846313,662.741455 
z"/>
<path fill="#CD2E2C" opacity="1.000000" stroke="none" 
	d="
M392.209900,347.296021 
	C392.444244,347.077759 392.721832,347.154541 393.415100,347.352539 
	C393.340027,347.985077 392.810089,347.969635 392.209900,347.296021 
z"/>
<path fill="#CD2E2C" opacity="1.000000" stroke="none" 
	d="
M356.640625,395.574829 
	C356.386688,395.596893 356.199921,395.429871 356.227417,395.379333 
	C356.443939,394.980927 356.654999,395.010742 356.640625,395.574829 
z"/>
<path fill="#CD2E2C" opacity="1.000000" stroke="none" 
	d="
M672.846313,600.741455 
	C672.641418,600.816528 672.457947,600.638794 672.155396,600.309448 
	C672.401855,600.033264 672.678955,600.143494 672.846313,600.741455 
z"/>
<path fill="#CD2E2C" opacity="1.000000" stroke="none" 
	d="
M255.153748,462.258545 
	C255.358597,462.183411 255.542023,462.361145 255.844604,462.690491 
	C255.972290,462.833344 255.483841,462.850739 255.483841,462.850739 
	C255.483841,462.850739 255.140823,462.502563 255.153748,462.258545 
z"/>
<path fill="#CD2E2C" opacity="1.000000" stroke="none" 
	d="
M159.846283,592.741455 
	C159.641434,592.816589 159.458038,592.638855 159.155563,592.309448 
	C159.401993,592.033264 159.679077,592.143494 159.846283,592.741455 
z"/>
<path fill="#CD2E2C" opacity="1.000000" stroke="none" 
	d="
M267.272400,463.011108 
	C267.040283,462.909393 267.037964,462.704590 267.038940,462.192566 
	C267.457886,462.108246 268.018280,462.266052 267.272400,463.011108 
z"/>
<path fill="#CD2E2C" opacity="1.000000" stroke="none" 
	d="
M243.272415,475.011108 
	C243.040283,474.909393 243.037964,474.704590 243.038910,474.192566 
	C243.457870,474.108215 244.018265,474.266022 243.272415,475.011108 
z"/>
</svg>